<svg width="300" height="51" viewBox="0 0 300 51" fill="none" xmlns="http://www.w3.org/2000/svg">
<path d="M92.9324 40.6394C89.4788 40.6394 86.5137 40.0464 84.0369 38.8603C81.5601 37.6394 79.5368 36.0521 77.967 34.0986C76.3973 32.1102 75.2286 29.9823 74.4612 27.7148C73.7286 25.4124 73.3623 23.1799 73.3623 21.017V19.8659C73.3623 17.4937 73.7461 15.1565 74.5135 12.8541C75.281 10.5169 76.4496 8.40639 78.0194 6.52264C79.6241 4.63889 81.6299 3.13887 84.0369 2.02258C86.4788 0.871396 89.3568 0.295807 92.6708 0.295807C96.1243 0.295807 99.1767 0.941165 101.828 2.23188C104.479 3.5226 106.59 5.31913 108.159 7.62149C109.764 9.88897 110.706 12.5576 110.985 15.6274H102.351C102.107 14.0925 101.549 12.7844 100.677 11.7029C99.8046 10.6215 98.6708 9.78432 97.2755 9.19128C95.915 8.59825 94.3801 8.30173 92.6708 8.30173C90.9614 8.30173 89.444 8.59825 88.1184 9.19128C86.7928 9.78432 85.6765 10.6215 84.7695 11.7029C83.8974 12.7844 83.2171 14.0751 82.7287 15.5751C82.2752 17.0402 82.0485 18.6798 82.0485 20.4938C82.0485 22.2729 82.2752 23.9124 82.7287 25.4124C83.2171 26.8776 83.9148 28.1683 84.8218 29.2846C85.7637 30.366 86.9149 31.2032 88.2753 31.7963C89.6358 32.3544 91.1882 32.6335 92.9324 32.6335C95.5836 32.6335 97.8162 31.9881 99.6301 30.6974C101.479 29.4067 102.595 27.6276 102.979 25.3601H111.561C111.247 28.1509 110.305 30.7148 108.735 33.0521C107.2 35.3544 105.09 37.2033 102.403 38.5987C99.7522 39.9592 96.5952 40.6394 92.9324 40.6394Z" fill="#5061FC"/>
<path d="M128.138 40.6394C125.626 40.6394 123.394 40.2557 121.44 39.4882C119.486 38.6859 117.829 37.6045 116.469 36.244C115.143 34.8835 114.132 33.3312 113.434 31.587C112.736 29.8079 112.388 27.9415 112.388 25.988V24.7845C112.388 22.7961 112.736 20.9124 113.434 19.1333C114.167 17.3193 115.213 15.7321 116.574 14.3716C117.969 13.0111 119.643 11.9471 121.597 11.1797C123.551 10.3773 125.731 9.97618 128.138 9.97618C130.615 9.97618 132.812 10.3773 134.731 11.1797C136.684 11.9471 138.341 13.0111 139.702 14.3716C141.062 15.7321 142.109 17.3193 142.841 19.1333C143.574 20.9124 143.94 22.7961 143.94 24.7845V25.988C143.94 27.9415 143.591 29.8079 142.894 31.587C142.196 33.3312 141.167 34.8835 139.807 36.244C138.481 37.6045 136.841 38.6859 134.888 39.4882C132.934 40.2557 130.684 40.6394 128.138 40.6394ZM128.138 33.5754C129.777 33.5754 131.138 33.2265 132.219 32.5288C133.301 31.8311 134.12 30.8544 134.679 29.5985C135.272 28.3427 135.568 26.9474 135.568 25.4124C135.568 23.7729 135.272 22.3426 134.679 21.1217C134.086 19.8659 133.231 18.8717 132.115 18.1391C131.033 17.4065 129.708 17.0402 128.138 17.0402C126.603 17.0402 125.277 17.4065 124.161 18.1391C123.045 18.8717 122.19 19.8659 121.597 21.1217C121.039 22.3426 120.76 23.7729 120.76 25.4124C120.76 26.9474 121.039 28.3427 121.597 29.5985C122.155 30.8544 122.992 31.8311 124.109 32.5288C125.225 33.2265 126.568 33.5754 128.138 33.5754Z" fill="#5061FC"/>
<path d="M147.167 39.6452V10.9704H153.812V23.2671H153.341C153.341 20.3368 153.708 17.8949 154.44 15.9414C155.208 13.9879 156.359 12.5227 157.894 11.546C159.429 10.5692 161.295 10.0808 163.493 10.0808H163.859C167.208 10.0808 169.755 11.1797 171.499 13.3774C173.278 15.5402 174.167 18.8368 174.167 23.2671V39.6452H165.795V22.7961C165.795 21.2612 165.342 20.0054 164.435 19.0286C163.528 18.0519 162.307 17.5635 160.772 17.5635C159.202 17.5635 157.929 18.0693 156.952 19.081C156.01 20.0577 155.539 21.3484 155.539 22.9531V39.6452H147.167Z" fill="#5061FC"/>
<path d="M191.715 40.0115C188.819 40.0115 186.482 39.6626 184.703 38.965C182.924 38.2324 181.616 37.0289 180.778 35.3544C179.976 33.6451 179.575 31.3428 179.575 28.4474V3.22608H187.372V28.7613C187.372 30.1218 187.72 31.1683 188.418 31.9009C189.151 32.5986 190.18 32.9474 191.505 32.9474H195.744V40.0115H191.715ZM175.232 17.0926V10.9704H195.744V17.0926H175.232Z" fill="#5061FC"/>
<path d="M215.975 39.6452V31.1683H214.562V21.9589C214.562 20.4938 214.214 19.3949 213.516 18.6623C212.818 17.9298 211.702 17.5635 210.167 17.5635C209.4 17.5635 208.388 17.5809 207.132 17.6158C205.876 17.6507 204.586 17.703 203.26 17.7728C201.934 17.8426 200.731 17.9123 199.649 17.9821V10.9181C200.452 10.8483 201.394 10.7785 202.475 10.7087C203.557 10.639 204.673 10.5867 205.824 10.5518C206.975 10.5169 208.057 10.4994 209.068 10.4994C211.998 10.4994 214.458 10.9181 216.446 11.7553C218.47 12.5925 220.004 13.8658 221.051 15.5751C222.097 17.2495 222.621 19.4124 222.621 22.0636V39.6452H215.975ZM206.818 40.3778C204.76 40.3778 202.946 40.0115 201.376 39.2789C199.841 38.5464 198.638 37.4998 197.766 36.1393C196.894 34.744 196.458 33.087 196.458 31.1683C196.458 29.0753 196.998 27.366 198.08 26.0404C199.161 24.6799 200.679 23.6857 202.632 23.0578C204.586 22.395 206.836 22.0636 209.382 22.0636H215.504V26.7206H209.33C207.865 26.7206 206.731 27.0869 205.929 27.8195C205.161 28.5171 204.777 29.4765 204.777 30.6974C204.777 31.8486 205.161 32.7905 205.929 33.523C206.731 34.2207 207.865 34.5696 209.33 34.5696C210.272 34.5696 211.109 34.4126 211.841 34.0986C212.609 33.7498 213.237 33.1742 213.725 32.3718C214.214 31.5695 214.493 30.4532 214.562 29.023L216.551 31.116C216.376 33.1044 215.888 34.7789 215.086 36.1393C214.318 37.4998 213.237 38.5464 211.841 39.2789C210.481 40.0115 208.807 40.3778 206.818 40.3778Z" fill="#5061FC"/>
<path d="M239.98 40.6394C237.503 40.6394 235.34 40.2382 233.492 39.4359C231.678 38.5987 230.16 37.4824 228.939 36.087C227.718 34.6916 226.811 33.1219 226.218 31.3776C225.625 29.5985 225.329 27.7671 225.329 25.8834V24.8892C225.329 22.9357 225.643 21.0694 226.27 19.2903C226.898 17.4763 227.823 15.8716 229.044 14.4762C230.265 13.0809 231.782 11.982 233.596 11.1797C235.445 10.3773 237.556 9.97618 239.928 9.97618C242.509 9.97618 244.794 10.482 246.782 11.4936C248.771 12.4704 250.358 13.8483 251.544 15.6274C252.73 17.4065 253.393 19.4472 253.533 21.7496H245.317C245.178 20.4589 244.654 19.3775 243.747 18.5054C242.875 17.5984 241.602 17.1449 239.928 17.1449C238.532 17.1449 237.364 17.4937 236.422 18.1914C235.515 18.8891 234.835 19.8484 234.381 21.0694C233.928 22.2903 233.701 23.738 233.701 25.4124C233.701 26.9474 233.91 28.3427 234.329 29.5985C234.747 30.8195 235.41 31.7788 236.317 32.4765C237.259 33.1393 238.48 33.4707 239.98 33.4707C241.096 33.4707 242.038 33.2788 242.806 32.8951C243.608 32.4765 244.236 31.9184 244.689 31.2207C245.178 30.4881 245.474 29.6509 245.579 28.709H253.742C253.637 31.0811 252.974 33.1742 251.753 34.9882C250.532 36.7673 248.91 38.1626 246.887 39.1743C244.864 40.151 242.561 40.6394 239.98 40.6394Z" fill="#5061FC"/>
<path d="M269.509 40.0115C266.614 40.0115 264.277 39.6626 262.497 38.965C260.718 38.2324 259.41 37.0289 258.573 35.3544C257.771 33.6451 257.369 31.3428 257.369 28.4474V3.22608H265.166V28.7613C265.166 30.1218 265.515 31.1683 266.213 31.9009C266.945 32.5986 267.974 32.9474 269.3 32.9474H273.538V40.0115H269.509ZM253.026 17.0926V10.9704H273.538V17.0926H253.026Z" fill="#5061FC"/>
<path d="M287.231 40.5348C283.15 40.5348 279.958 39.6975 277.656 38.0231C275.353 36.3486 274.132 33.994 273.993 30.959H281.423C281.563 31.866 282.103 32.6858 283.045 33.4184C284.022 34.1161 285.47 34.4649 287.388 34.4649C288.854 34.4649 290.057 34.2207 290.999 33.7323C291.976 33.2091 292.464 32.4765 292.464 31.5346C292.464 30.6974 292.098 30.0346 291.365 29.5462C290.633 29.023 289.325 28.6567 287.441 28.4474L285.191 28.2381C281.737 27.8892 279.138 26.9299 277.394 25.3601C275.685 23.7903 274.83 21.7845 274.83 19.3426C274.83 17.3193 275.336 15.6274 276.348 14.2669C277.359 12.9065 278.755 11.8774 280.534 11.1797C282.348 10.482 284.406 10.1332 286.708 10.1332C290.406 10.1332 293.389 10.9529 295.656 12.5925C297.923 14.1972 299.11 16.5344 299.214 19.6042H291.784C291.644 18.6623 291.156 17.8775 290.319 17.2495C289.481 16.5867 288.243 16.2553 286.604 16.2553C285.313 16.2553 284.284 16.4995 283.516 16.9879C282.749 17.4763 282.365 18.1391 282.365 18.9763C282.365 19.7786 282.697 20.3891 283.359 20.8077C284.022 21.2263 285.104 21.5229 286.604 21.6973L288.854 21.9066C292.377 22.2903 295.115 23.2671 297.069 24.8369C299.022 26.4066 299.999 28.5171 299.999 31.1683C299.999 33.087 299.476 34.7614 298.429 36.1917C297.383 37.587 295.9 38.6684 293.982 39.4359C292.063 40.1685 289.813 40.5348 287.231 40.5348Z" fill="#5061FC"/>
<path d="M0 39.6452V1.44699H11.8258L20.5642 22.9008H21.5584L30.1923 1.44699H42.2273V39.6452H33.7505V7.04591L34.954 7.15056L24.855 31.9009H16.6921L6.54079 7.15056L7.84895 7.04591V39.6452H0Z" fill="#222222"/>
<path d="M47.3921 51V43.8836H53.3573C54.2643 43.8836 55.0318 43.7615 55.6597 43.5174C56.2876 43.3081 56.7934 42.9418 57.1771 42.4185C57.5609 41.8952 57.8748 41.1801 58.119 40.2731L65.1831 10.9704H73.1367L65.1307 41.9476C64.5726 44.1802 63.7877 45.9592 62.7761 47.2848C61.7993 48.6104 60.4737 49.5523 58.7993 50.1105C57.1597 50.7035 55.0666 51 52.5201 51H47.3921ZM56.3922 39.0173V32.4765H62.4621V39.0173H56.3922ZM52.9387 39.0173L44.1479 10.9704H52.5724L60.8923 39.0173H52.9387Z" fill="#222222"/>
</svg>
